<svg xmlns="http://www.w3.org/2000/svg" viewBox="1610 51 800 800">
  <rect x="1610" y="51" width="800" height="800" fill="#241a17"/>
  <path fill="#000000" fill-rule="evenodd" d="M 2026.59 93.3885 C 2055.15 91.9106 2083.74 100.344 2107.74 115.913 C 2134.63 133.359 2147.36 158.363 2163.6 185.079 C 2175.74 205.051 2187.99 224.961 2200.34 244.808 L 2246.16 318.663 C 2254.25 331.699 2266.19 349.223 2272.62 362.749 C 2290.56 400.433 2291.95 454.355 2280.05 494.007 C 2271.28 523.194 2247.76 552.792 2233.41 579.876 C 2213.47 613.91 2193.28 650.699 2171.14 683.213 C 2166.8 685.397 2168.02 683.807 2162.78 684.045 C 2162.35 684.065 2160.86 684.556 2160.7 684.83 C 2154.88 694.887 2147.32 705.331 2140.35 714.548 C 2134.88 721.772 2128.51 728.872 2121.79 734.55 C 2110.56 744.049 2097.86 751.981 2086.05 760.747 C 2069.8 772.813 2054.38 787.665 2035.96 796.258 C 2023.74 801.957 2007.24 804.904 1994.01 806.687 C 1955.76 809.929 1921.24 799.809 1891.14 776.143 C 1872.89 761.798 1858.53 734.024 1846.49 714.222 L 1804.41 645.764 L 1766.99 585.603 C 1746.89 553.168 1732.12 529.897 1729.75 490.35 C 1728.04 461.845 1727.91 432.264 1737.85 404.944 C 1742.74 391.517 1752.24 376.361 1759.29 363.782 L 1796.35 297.609 L 1839.33 220.871 C 1844.31 211.988 1862.26 178.352 1867.76 173.884 C 1912.04 137.933 1968.96 98.3179 2026.59 93.3885 z M 1989.13 260.826 C 1992.2 263.913 2018.19 307.093 2022.57 314.229 L 2072.81 396.181 C 2090.87 425.778 2114.4 454.324 2102.25 491.609 C 2095.97 510.866 2081.65 531.623 2071.08 549.295 L 2021.28 632.539 C 1997.1 591.614 1969.18 552.102 1944.82 511.261 C 1933.29 491.928 1912.64 465.869 1906.51 444.858 C 1896.65 411.07 1922.59 380.08 1937.81 352.801 C 1955.39 322.235 1971.01 290.457 1989.13 260.826 z"/>
  <path fill="#f6c105" fill-rule="evenodd" d="M 1970.49 142.411 C 2000.86 140.691 2033.07 151.507 2056.93 170.289 C 2077.43 186.425 2089.66 210.944 2103.08 233.067 L 2147.42 305.817 L 2188.3 371.61 C 2203.4 396.055 2216.77 414.151 2219.83 443.604 C 2223.04 471.151 2222.37 500.338 2214.03 526.994 C 2208.05 546.126 2195.83 564.214 2185.72 581.656 L 2147.35 647.478 C 2137.81 663.683 2127.96 680.542 2118.21 696.682 C 2114.98 701.274 2109.04 701.544 2105.5 705.93 C 2068.15 752.235 2058.3 784.82 1993.25 793.627 C 1959.14 796.656 1923.33 786.792 1897.51 764.148 C 1882.29 750.804 1868.42 724.996 1857.71 707.394 L 1815.01 637.489 L 1779.12 580.068 C 1757.39 545.336 1746.24 528.995 1742.78 486.174 C 1738.28 430.599 1747.31 412.321 1773.31 365.992 L 1811.73 297.673 L 1849.17 231.039 C 1863.36 205.786 1872.95 183.056 1897.48 166.297 C 1921.43 149.935 1941.95 144.511 1970.49 142.411 z M 1989.13 260.826 C 1992.2 263.913 2018.19 307.093 2022.57 314.229 L 2072.81 396.181 C 2090.87 425.778 2114.4 454.324 2102.25 491.609 C 2095.97 510.866 2081.65 531.623 2071.08 549.295 L 2021.28 632.539 C 1997.1 591.614 1969.18 552.102 1944.82 511.261 C 1933.29 491.928 1912.64 465.869 1906.51 444.858 C 1896.65 411.07 1922.59 380.08 1937.81 352.801 C 1955.39 322.235 1971.01 290.457 1989.13 260.826 z"/>
  <path fill="#000000" fill-rule="evenodd" d="M 1971.32 236.235 C 1995.95 233.977 2004.21 258.535 2015.43 276.976 L 2047.15 328.78 L 2088.65 396.402 C 2095.58 407.751 2107.57 426.523 2112.54 437.999 C 2120.58 456.553 2119.83 486.229 2111.57 504.711 C 2106.18 516.777 2098.06 529.45 2091.12 541.088 C 2077.93 563.295 2064.59 585.415 2051.11 607.447 C 2035.87 632.906 2021.37 660.644 2004.47 685.099 C 2000.15 691.356 1996.41 693.753 1989.58 696.621 C 1972.45 699.112 1966.86 693.836 1958.09 680.178 C 1942.94 656.595 1928.25 632.739 1913.36 608.994 L 1879.04 554.431 C 1868 536.921 1853.72 516.966 1847.45 497.632 C 1839.65 474.192 1841.62 448.602 1852.9 426.626 C 1858.99 414.849 1867.75 401.016 1874.5 389.12 L 1917.68 312.358 L 1942.54 268.436 C 1950.89 253.763 1954.26 241.681 1971.32 236.235 z M 1989.13 260.826 C 1992.2 263.913 2018.19 307.093 2022.57 314.229 L 2072.81 396.181 C 2090.87 425.778 2114.4 454.324 2102.25 491.609 C 2095.97 510.866 2081.65 531.623 2071.08 549.295 L 2021.28 632.539 C 1997.1 591.614 1969.18 552.102 1944.82 511.261 C 1933.29 491.928 1912.64 465.869 1906.51 444.858 C 1896.65 411.07 1922.59 380.08 1937.81 352.801 C 1955.39 322.235 1971.01 290.457 1989.13 260.826 z"/>
</svg>